<svg fill="currentColor" xmlns="http://www.w3.org/2000/svg" viewBox="0 0 24 24" aria-hidden="true" class="icon side-nav-icon"><path fill-rule="evenodd" d="M10.671 1.442a2.004 2.004 0 0 1 2.658 0l8 7.09c.427.378.671.92.671 1.49v9.922a1.997 1.997 0 0 1-2 1.994h-3c-1.105 0-2-.893-2-1.994v-4.985c0-.275-.175-1.072-.689-1.789-.48-.67-1.201-1.203-2.311-1.203s-1.831.533-2.311 1.203C9.175 13.887 9 14.684 9 14.96v4.986a1.996 1.996 0 0 1-2 1.993H4c-1.105 0-2-.893-2-1.994v-9.922c0-.57.244-1.112.671-1.49zM12 2.932l-8 7.09v9.922h3v-4.985c0-.723.325-1.92 1.061-2.948.77-1.074 2.049-2.038 3.939-2.038s3.169.963 3.939 2.038C16.675 13.039 17 14.236 17 14.959v4.985h3v-9.922zM7.002 19.944H7zm0 0" clip-rule="evenodd"/></svg>