<svg xmlns="http://www.w3.org/2000/svg" fill="none" viewBox="0 0 24 24" aria-hidden="true" class="icon " id="instagram-footer-icon" title="Instagram" description="Find us on Instagram"><g fill="currentColor"><path d="M12 3.801c2.67 0 2.986.01 4.04.059.976.044 1.505.207 1.858.344.435.16.828.416 1.151.748.332.323.588.716.748 1.151.137.353.3.882.345 1.857.047 1.055.058 1.37.058 4.041 0 2.67-.01 2.987-.058 4.041-.045.975-.208 1.505-.345 1.857a3.31 3.31 0 0 1-1.898 1.898c-.352.137-.882.3-1.857.344-1.054.048-1.37.058-4.04.058s-2.987-.01-4.041-.058c-.975-.044-1.505-.207-1.857-.344a3.1 3.1 0 0 1-1.151-.748 3.1 3.1 0 0 1-.749-1.151c-.137-.353-.3-.883-.344-1.857-.048-1.055-.058-1.371-.058-4.041s.01-2.987.058-4.041c.045-.975.207-1.505.344-1.857.16-.435.416-.829.749-1.151a3.1 3.1 0 0 1 1.15-.749c.353-.137.883-.3 1.858-.344C9.015 3.81 9.33 3.8 12 3.8zm.002-1.803c-2.716 0-3.057.012-4.124.06-1.066.05-1.793.22-2.428.466a4.9 4.9 0 0 0-1.772 1.154A4.9 4.9 0 0 0 2.525 5.45c-.247.635-.416 1.363-.465 2.427C2.012 8.942 2 9.284 2 12s.012 3.056.06 4.123c.05 1.066.218 1.791.465 2.426a4.9 4.9 0 0 0 1.153 1.771c.5.51 1.105.903 1.772 1.154.635.248 1.363.417 2.428.465S9.285 22 12 22s3.056-.01 4.123-.06 1.79-.217 2.426-.465a5.11 5.11 0 0 0 2.925-2.925c.247-.635.416-1.363.465-2.427.048-1.064.06-1.407.06-4.123s-.012-3.057-.06-4.123c-.05-1.067-.218-1.791-.465-2.426a4.9 4.9 0 0 0-1.153-1.771 4.9 4.9 0 0 0-1.772-1.155c-.635-.247-1.363-.416-2.428-.464S14.716 2 12 2z"/><path d="M12 6.865a5.135 5.135 0 1 0 0 10.27 5.135 5.135 0 0 0 0-10.27m0 8.47a3.335 3.335 0 1 1 0-6.671 3.335 3.335 0 0 1 0 6.67M17.338 7.862a1.2 1.2 0 1 0 0-2.4 1.2 1.2 0 0 0 0 2.4"/></g></svg>