<svg fill="currentColor" xmlns="http://www.w3.org/2000/svg" viewBox="0 0 24 24" aria-hidden="true" class="icon " id="twitter-footer-icon" title="Twitter" description="View our Twitter profile"><path fill-rule="evenodd" d="M23 5.132a9 9 0 0 1-2.592.715 4.57 4.57 0 0 0 1.985-2.51 9 9 0 0 1-2.865 1.102A4.5 4.5 0 0 0 16.232 3c-2.495 0-4.516 2.036-4.516 4.547 0 .357.045.704.119 1.034-3.754-.188-7.079-1.999-9.304-4.746a4.551 4.551 0 0 0 1.398 6.064 4.55 4.55 0 0 1-2.049-.566v.053c0 2.203 1.555 4.041 3.623 4.452q-.572.164-1.192.164c-.287 0-.572-.029-.846-.08a4.51 4.51 0 0 0 4.214 3.155A9.03 9.03 0 0 1 1 18.959 12.7 12.7 0 0 0 7.914 21c8.307 0 12.847-6.922 12.847-12.928q-.002-.296-.014-.59A9.2 9.2 0 0 0 23 5.132" clip-rule="evenodd"/></svg>